<?xml version="1.0" standalone="no"?>
<!DOCTYPE svg PUBLIC "-//W3C//DTD SVG 20010904//EN"
 "http://www.w3.org/TR/2001/REC-SVG-20010904/DTD/svg10.dtd">
<svg version="1.0" xmlns="http://www.w3.org/2000/svg"
 width="512.000000pt" height="512.000000pt" viewBox="0 0 512.000000 512.000000"
 preserveAspectRatio="xMidYMid meet">
<metadata>
Created by potrace 1.14, written by Peter Selinger 2001-2017
</metadata>
<g transform="translate(0.000000,512.000000) scale(0.100000,-0.100000)"
fill="#000000" stroke="none">
<path d="M683 5101 c-55 -26 -98 -73 -117 -128 -14 -42 -16 -293 -16 -2413 0
-2612 -5 -2421 62 -2489 71 -72 -111 -66 1938 -68 1771 -2 1847 -2 1885 16 49
22 87 60 112 109 17 36 18 125 18 2437 0 2232 -1 2402 -17 2430 -23 41 -63 82
-101 102 -30 17 -138 18 -1877 20 -1791 3 -1846 2 -1887 -16z"/>
</g>
</svg>
